<?xml version="1.0" standalone="no"?>
<!DOCTYPE svg PUBLIC "-//W3C//DTD SVG 1.1//EN" "http://www.w3.org/Graphics/SVG/1.1/DTD/svg11.dtd" >
<!--
2013-9-30: Created.
-->
<svg>
<metadata>
Created by iconfont
</metadata>
<defs>

<font id="iconfont" horiz-adv-x="1024" >
  <font-face
    font-family="iconfont"
    font-weight="500"
    font-stretch="normal"
    units-per-em="1024"
    ascent="896"
    descent="-128"
  />
    <missing-glyph />
    
    <glyph glyph-name="suoquyangpin" unicode="&#58992;" d="M820.8896-87.04h-634.88l-153.6 153.6 324.3008 494.9504V834.56h291.84v-273.0496L972.8 66.56l-151.9104-153.6zM215.04-18.7904h578.56l93.8496 93.9008-305.4592 465.92v225.28H426.6496v-225.28l-305.4592-465.92L215.04-18.7904zM315.7504 834.56H691.2a34.1504 34.1504 0 0 0 0-68.2496H315.7504a34.1504 34.1504 0 0 0 0 68.2496zM315.7504 100.7104H691.2a34.1504 34.1504 0 0 0 0-68.3008H315.7504a34.1504 34.1504 0 0 0 0 68.3008z"  horiz-adv-x="1024" />

    
    <glyph glyph-name="shangjia" unicode="&#58995;" d="M1052.48350039 546.10000019a32.0000001 32.0000001 0 0 1-2.10000058 7.49999971l-84.49999981 209.99999971C951.1335002 807.24999961 909.1334999 833.9499999 859.93349961 834H266.73350029c-49.79999971 0-88.49999971-26.4999999-102.5499999-68.29999981L73.28350039 551.5000001999999a45.9 45.9 0 0 1-1.30000078-5.0500002 197.70000029 197.70000029 0 0 1 95.25000059-236.49999961v-0.1000002c26.65000019-14.15000039 57.9999999-21.35000039 93.29999941-21.35000039a197.6500002 197.6500002 0 0 1 151.35000029 70.50000059 197.55 197.55 0 0 1 150.59999971-70.15000078 196.99999981 196.99999981 0 0 1 149.80000078 70.35000029 197.1500001 197.1500001 0 0 1 151.69999922-70.2500001c36 0.20000039 67.95 7.7500002 94.85000068 22.5a197.9499999 197.9499999 0 0 1 93.6500001 234.70000049z m-128.20000078-171.55000019c-16.30000019-8.9499999-36.69999961-13.5-60.34999922-13.65000029a125.25000029 125.25000029 0 0 0-107.35000049 60.00000029 57.30000029 57.30000029 0 0 1-9.60000029 15.14999971 44.6000001 44.6000001 0 0 1-34.5999999 14.50000019c-14.3499999 0-27.3499998-5.85-34.7000001-14.85-4.84999981-5.4500001-7.49999971-10.90000019-9.49999922-14.85a125.39999971 125.39999971 0 0 0-105.75-60.04999951A125.4999999 125.4999999 0 0 0 455.83349961 421.0000002c-1.59999961 3.30000029-4.29999961 8.8999998-8.4999999 13.60000019-16.99999981 20.1999999-54.9 19.14999961-69.69999991 1.54999951a57.80000039 57.80000039 0 0 1-10.09999951-15.99999961 126.20000039 126.20000039 0 0 0-107.0499999-59.75000068c-23.2999998 0-43.2500001 4.34999971-59.35000078 12.90000058H201.08350039a125.79999961 125.79999961 0 0 0-60.00000029 152.39999971 33.50000039 33.50000039 0 0 1 0.8499999 3.15l89.4999999 211.20000029c1.8500001 5.4 7.40000039 21.84999961 35.25000029 21.84999962H860.0834999c11.45000039-0.69999961 31.1000001-2.7 38.09999971-23.24999971l83.8000002-208.24999981 1.10000039-4.15000019a125.84999971 125.84999971 0 0 0-58.75000049-151.7000001z m27.0500001-115.49999971a36 36 0 0 1-36-36v-196.35000029a20.35000019 20.35000019 0 0 0-20.25-20.3000001l-678.39999961-0.3999999a20.1999999 20.1999999 0 0 0-20.25 20.04999961l-0.25000049 193.00000078a36 36 0 0 1-36.04999922 35.8999998h-0.10000019a36 36 0 0 1-36-36l0.2999997-192.90000058c0-50.74999981 41.4-92.04999961 92.3500002-92.04999961l678.4999998 0.45a92.49999961 92.49999961 0 0 1 92.3000001 92.25l-0.1000002 196.35000029a36 36 0 0 1-36 36zM844.23349971 511.0000002H267.33349971a36 36 0 1 0 0 72h576.9a36 36 0 1 0 0-72z"  horiz-adv-x="1137" />

    
    <glyph glyph-name="paixu1" unicode="&#58893;" d="M873.28 214.72000000000003a32 32 0 0 0 45.44-45.44l-128-128a32 32 0 0 0-45.44 45.44zM800 64a32 32 0 0 0-64 0V640a32 32 0 0 0 64 0zM192 608a32 32 0 0 0 0 64h448a32 32 0 0 0 0-64z m0-192a32 32 0 0 0 0 64h448a32 32 0 0 0 0-64z m0-192a32 32 0 0 0 0 64h448a32 32 0 0 0 0-64z m0-192a32 32 0 0 0 0 64h448a32 32 0 0 0 0-64z"  horiz-adv-x="1024" />

    
    <glyph glyph-name="paixu2" unicode="&#58958;" d="M613.6 644.5H147.1c-17.9 0-32.4 14.5-32.4 32.4s14.5 32.4 32.4 32.4h466.5c17.9 0 32.4-14.5 32.4-32.4s-14.5-32.4-32.4-32.4zM613.6 458.9H147.1c-17.9 0-32.4 14.5-32.4 32.4s14.5 32.4 32.4 32.4h466.5c17.9 0 32.4-14.5 32.4-32.4 0-17.8-14.5-32.4-32.4-32.4zM613.6 273.4H147.1c-17.9 0-32.4 14.5-32.4 32.4s14.5 32.4 32.4 32.4h466.5c17.9 0 32.4-14.5 32.4-32.4s-14.5-32.4-32.4-32.4zM613.6 87.79999999999995H147.1c-17.9 0-32.4 14.5-32.4 32.4s14.5 32.4 32.4 32.4h466.5c17.9 0 32.4-14.5 32.4-32.4s-14.5-32.4-32.4-32.4zM776.8 64.10000000000002c-17.9 0-32.4 14.5-32.4 32.4V695.6c0 12.3 6.9 23.5 17.9 29 11 5.5 24.1 4.3 33.9-3.1l137.6-103.2c14.3-10.7 17.2-31 6.5-45.4-10.8-14.3-31.1-17.2-45.4-6.5l-85.7 64.3v-534.3c0-17.8-14.5-32.3-32.4-32.3z"  horiz-adv-x="1024" />

    
    <glyph glyph-name="renyuan" unicode="&#58990;" d="M624.78636347 210.75c-3.31363653 34.85454521-2.20909131 60.75-2.20909042 93.39545479 15.46363653 9 70.77272695 63 75.19090869 108 12.15 1.10454521 32.03181826 13.5 37.55454521 63 3.35454521 25.85454521-8.83636347 41.60454521-16.56818174 46.10454521 19.92272695 61.85454521 28.75909131 255.35454521-110.57727216 274.5C593.81818174 820.5 557.32727305 834 509.79090869 834c-190.18636347-3.35454521-246.55909131-148.5-204.5454539-313.89545479-7.77272695-4.5-19.92272695-19.10454521-16.56818174-46.10454521 5.52272695-49.5 25.40454521-61.85454521 37.55454521-63 4.45909131-46.10454521 59.72727305-100.14545479 75.19090869-108 0-32.64545479 1.10454521-57.39545479-2.20909042-93.39545479C361.61818174 106.10454520999997 115.05909131 160.10454520999997 102.90909131-66h818.18181738c-6.62727305 229.5-258.70909131 172.10454521-296.30454521 276.75z"  horiz-adv-x="1024" />

    
    <glyph glyph-name="fenxiang1" unicode="&#58991;" d="M855.72500029 534.00000029H774.50000029a37.50000029 37.50000029 0 0 1 0-75.00000058h81.225c17.25000029 0 31.275-13.12499971 31.275-29.17499942v-391.65000029c0-16.04999971-14.02499971-29.17500029-31.275-29.17500029H168.27499971c-17.25000029 0-31.275 13.12499971-31.275 29.17500029V429.82500029C136.99999971 445.94999971 151.02500029 458.99999971 168.27499971 458.99999971H249.49999971a37.50000029 37.50000029 0 0 1 0 75.00000058H168.27499971C109.62500029 534.00000029 62 487.275 62 429.82500029v-391.65000029C62-19.274999709999975 109.62500029-66 168.27499971-66h687.52500029c58.5 0 106.2 46.72500029 106.2 104.175V429.82500029C962 487.275 914.3 534.00000029 855.72500029 534.00000029zM474.49999971 159a37.50000029 37.50000029 0 0 1 75.00000058 0V609h149.99999942L512.97499971 834 324.50000029 609h149.99999942v-450z"  horiz-adv-x="1024" />

    
    <glyph glyph-name="shezhi" unicode="&#58993;" d="M742.74221972 302.10053173999995c86.57991299 0 161.72983828-59.39994023 180.98981895-143.18985674h87.11991299c21.86997802 0 39.86996045-16.9199833 41.12995869-38.51996133a41.03995869 41.03995869 0 0 0-36.26996397-43.01995693l-4.85999472-0.36h-87.11991299A185.39981455 185.39981455 0 0 0 742.74221972-65.9991 185.39981455 185.39981455 0 0 0 561.57240078 77.01075674000003H103.29285869A41.12995869 41.12995869 0 0 0 62.0729 115.53071807000003a41.03995869 41.03995869 0 0 0 36.26996396 43.10995693l4.85999473 0.27H561.57240078a185.39981455 185.39981455 0 0 0 181.07981895 143.09985674z m0-81.89991827c-56.96994287 0-103.13989717-45.7199543-103.13989716-102.23989716 0-56.51994375 46.16995342-102.23989805 103.13989716-102.23989805 56.96994287 0 103.13989717 45.7199543 103.1398963 102.23989805 0 56.51994375-46.16995342 102.32989805-103.1398963 102.32989717zM371.40259062 834c89.09991123 0 163.52983652-62.1899376 181.52981895-145.25985498h457.91954209c21.86997802 0 39.86996045-16.9199833 41.12995869-38.51996133a41.03995869 41.03995869 0 0 0-36.26996397-43.01995694l-4.85999472-0.27H552.03241045a185.39981455 185.39981455 0 0 0-180.62981982-141.11985849 185.39981455 185.39981455 0 0 0-180.53981983 141.02985849H103.29285869A41.12995869 41.12995869 0 0 0 62.0729 645.54018808a41.03995869 41.03995869 0 0 0 36.26996396 43.01995694l4.85999473 0.27h86.57991387A185.39981455 185.39981455 0 0 0 371.40259062 834z m0-81.89991826c-56.96994287 0-103.13989717-45.7199543-103.13989716-102.23989716 0-56.51994375 46.16995342-102.23989805 103.13989716-102.23989806 56.96994287 0 103.13989717 45.7199543 103.13989717 102.23989805 0 56.51994375-46.16995342 102.32989805-103.13989717 102.32989717z"  horiz-adv-x="1126" />

    
    <glyph glyph-name="zuzhijiagou" unicode="&#58994;" d="M203.198525 834H823.838525A101.34 101.34 0 0 0 916.988525 730.635v-768.33a27.585 27.585 0 0 0-11.7-23.67 24.075 24.075 0 0 0-23.895-2.61L515.408525 22.200000000000045 142.538525-62.85000000000002a25.515 25.515 0 0 0-23.85 2.385 27.585 27.585 0 0 0-11.475 23.67V439.17a102.42 102.42 0 0 0 0 13.725V731.85A100.44 100.44 0 0 0 203.198525 834z m570.51-201.33c0 26.145-21.375 47.34-47.7 47.34H280.733525c-26.37 0-47.745-21.15-47.745-47.34v-4.5c0-12.51 5.04-24.57 13.95-33.435 9-8.865 21.15-13.86 33.75-13.86h445.23c26.37 0 47.745 21.15 47.745 47.34v4.5z m0-205.56c0 26.1-21.375 47.34-47.7 47.34H280.733525c-26.37 0-47.745-21.195-47.745-47.34v-4.5c0-26.1 21.375-47.25 47.7-47.25h445.23c26.37 0 47.745 21.15 47.745 47.25v4.5z m-273.33-175.95c0-26.145 21.375-47.34 47.745-47.34h185.985c26.37 0 47.7 21.15 47.7 47.295v4.5c0 26.1-21.33 47.295-47.7 47.295H546.638525c-26.37 0-47.7-21.15-47.7-47.25v-4.5h1.395z m-279.765-185.04l75.69 40.005 75.87-40.95-14.04 85.905 61.785 60.3-84.735 13.05-37.485 78.3-38.43-77.85-84.96-12.06 61.11-61.29-15.03-85.86 0.225 0.45z"  horiz-adv-x="1024" />

    
    <glyph glyph-name="tongxunlu" unicode="&#58986;" d="M242 80.25v22.5c0 6.19999981-5.0000001 11.25-11.25 11.25H73.25c-6.19999981 0-11.25-5.0000001-11.25-11.25v-22.5c0-6.19999981 5.0000001-11.25 11.25-11.25h157.5c6.19999981 0 11.25 5.0000001 11.25 11.25zM73.25 654h157.5c6.19999981 0 11.25 5.0000001 11.25 11.25v22.5c0 6.19999981-5.0000001 11.25-11.25 11.25H73.25C67.05000019 699 62 693.9999999 62 687.75v-22.5c0-6.19999981 5.0000001-11.25 11.25-11.25z m0-292.5h157.5c6.19999981 0 11.25 5.0000001 11.25 11.25v22.5c0 6.19999981-5.0000001 11.25-11.25 11.25H73.25c-6.19999981 0-11.25-5.0000001-11.25-11.25v-22.5c0-6.19999981 5.0000001-11.25 11.25-11.25zM917 834H197a45 45 0 0 1-45-45v-45h112.5a22.5 22.5 0 0 0 22.5-22.5v-90a22.5 22.5 0 0 0-22.5-22.5H152v-157.5h112.5a22.5 22.5 0 0 0 22.5-22.5v-90a22.5 22.5 0 0 0-22.5-22.5H152v-157.5h112.5a22.5 22.5 0 0 0 22.5-22.5v-90a22.5 22.5 0 0 0-22.5-22.5H152v-45a45 45 0 0 1 45-45h720a45 45 0 0 1 45 45V789a45 45 0 0 1-45 45z m-148.74999961-594.60000029c-5.4-4.5-16.49999971-10.95000029-17.75000039-11.6499999l-2.09999971-1.24999981H433.09999971l-2.09999971 1.24999981a167.85 167.85 0 0 0-17.79999961 11.7 36.5000001 36.5000001 0 0 0-13.5 29.25l0.04999922 3.0499998c0.0500001 6.19999981 0.1000002 12.5499999 1.8500001 19.05000029 3.9999999 15.3500001 15.4000002 25.2500001 26.70000029 34.09999981 14.74999981 11.6499999 32.19999961 21.49999981 56.54999971 32.0000001 11.59999981 5.0000001 24.00000029 9.74999971 37.95000029 14.55000029 5.95000019 2.09999971 12.2000001 8.6000001 15.85000019 16.49999971a24.8500002 24.8500002 0 0 1 2.3500002 16.9999998l-0.65000039 0.80000068c-16.5499998 20.04999961-29.7 37.8500001-35.9499999 68.79999991-5.0000001 24.8000001-4.29999961 48.2500002 2.1499998 69.6999999 9.8499999 32.85 31.1000001 54.24999961 61.49999971 61.80000029 4.5 1.14999961 9 1.95000029 13.40000068 2.39999942V609l18.59999942 0.0500001v-0.5000001c4.39999981-0.5000001 8.84999971-1.2999999 13.5-2.49999961 30.30000029-7.49999971 51.54999961-28.90000019 61.40000039-61.7500002 6.45000029-21.44999971 7.1499999-44.8999998 2.1499998-69.6999999-6.2499999-30.94999981-19.4000001-48.75000029-35.9499999-68.7999999l-0.60000029-0.70000049v-0.10000019a24.8500002 24.8500002 0 0 1 2.3000001-16.99999981c3.7000002-7.94999971 9.9-14.4 15.85000019-16.49999971 13.8999999-4.79999971 26.30000039-9.60000029 37.95000029-14.60000039 24.3500001-10.50000029 41.7999999-20.3000001 56.59999981-31.95 10.7499999-8.4499998 22.6000002-18.74999971 26.65000019-34.0999998 1.69999981-6.50000039 1.8-12.84999961 1.8500001-19.0000002v-3.0999999a36.5000001 36.5000001 0 0 0-13.5-29.3000001z"  horiz-adv-x="1024" />

    
    <glyph glyph-name="shoudongtianjia" unicode="&#58988;" d="M952.69111982 721.25911904c2.81978174-6.11952715 4.97961474-13.31896992 6.65948497-21.59833008 1.73986523-8.21936426 2.57980078-16.79870127 2.57980078-25.67801425 0-8.93930888-1.67987021-17.81862188-5.09960567-26.75793076a82.07365254 82.07365254 0 0 0-16.37873349-25.67801426c-8.21936426-8.21936426-15.53879795-15.41880791-22.01829698-21.59833008-6.47949902-6.17952217-12.1190625-11.63909971-16.91869219-16.43872852a273.57884297 273.57884297 0 0 0-15.29881698-14.39888642l-191.38519951 192.28513007c8.15936924 7.55941553 17.87861777 16.61871445 29.0977497 27.23789356 11.27912783 10.61917911 20.69839951 19.0185293 28.19782002 25.19805147A89.8730499 89.8730499 0 0 0 811.9420042 833.87040967c9.89923448-0.35997187 19.43849707-1.85985615 28.61778692-4.61964199 9.23928574-2.75978672 17.27866406-5.81955029 24.05813993-9.23928575 14.39888643-7.55941553 30.23766123-20.75839453 47.63631622-39.59693789 17.3986541-18.83854336 30.83761494-38.57701641 40.37687753-59.155425zM155.35278037 219.57791542999996c4.13968008 4.07968418 13.6789418 13.79893271 28.67778281 29.27773564 14.99884013 15.41880791 33.7773876 34.43733721 56.27564825 57.05558789L315.06043027 380.96543467000004 397.97401836 464.23899463l220.06298144 221.08290293 191.38519952-193.36504658L589.35921787 270.93394393999995l-81.89366748-83.33355586a5140.40247597 5140.40247597 0 0 1-73.67430234-73.49431641c-21.83831104-22.31827383-39.95690977-40.61685937-54.23580527-55.01574491a445.52554628 445.52554628 0 0 0-49.19619551-44.21658077 127.55013574 127.55013574 0 0 0-27.59786631-16.43872938c-9.5392626-4.79962881-23.51818125-10.61917911-41.99675185-17.51864503-18.35858057-6.8394709-37.67708672-13.49895586-57.77553253-20.0384499a1115.91370283 1115.91370283 0 0 0-57.35556387-16.97868721c-18.05860372-4.79962881-31.55755957-7.85939239-40.43687344-9.23928574-18.41857558-2.03984209-30.65762901 0.65994873-36.83715117 8.21936426-6.11952715 7.55941553-7.79939648 20.21843672-5.09960566 38.03705859 1.37989336 9.59925762 4.61964287 23.51818125 9.71924854 41.63677998 5.09960567 18.17859375 10.5591832 37.01713711 16.37873349 56.5756251 5.81955029 19.55848711 11.39911875 37.5570958 16.91869131 53.99582432 5.39958252 16.43872852 9.83923945 27.77785224 13.2589749 33.89737852 4.13968008 9.59925762 8.69932705 18.35858057 13.79893272 26.21797294 5.15960068 7.9193874 12.47903526 16.67871036 22.01829697 26.27796709z m341.37360088-193.9650003H588.15931045V-66H496.66638623v91.55292011z m185.92562198 0h91.49292421V-66h-91.49292421v91.55292011z m186.70556073 0h91.55292012V-66h-91.55292012v91.55292011z"  horiz-adv-x="1024" />

    
    <glyph glyph-name="jiaohumingpian" unicode="&#58987;" d="M893.93567188 233.99483349000002a31.09946396 31.09946396 0 0 0-22.59961084 9.84983028 34.19941113 34.19941113 0 0 0-9.39983731 23.69959189c0 8.89984687 3.3999416 17.3997 9.39983731 23.64959268L985.48409551 410.99178487c25.69955713 26.94953584 5.64990293 59.84896904-16.29971895 82.84857362L733.98842685 740.48611084c-18.79967636 19.74965977-31.99944902 24.99956982-39.49931953 26.29954687-5.64990293 0.69998818-13.7997624 0.69998818-25.09956826-11.1498082L441.74345997 516.8399622100001c33.19942852-22.39961396 70.84877959-24.99956982 94.69836913-3.29994317 40.74929825 37.4993543 99.09829336 103.89821045 99.69828311 104.54819942a30.79946953 30.79946953 0 0 0 45.14922246 1.99996523 34.49940557 34.49940557 0 0 0 1.89996679-47.34918457c-2.49995654-2.6499542-61.49894063-69.74879854-104.74819541-109.84810781-56.44902744-51.99910489-145.49749453-39.49931953-207.5964249 28.94950107a34.29940957 34.29940957 0 0 0 0.64998896 46.69919648L623.59032852 802.93503487c43.89924375 45.99920742 102.24823887 40.79929747 155.5473208-15.14973868l235.1959497-246.64575234c57.04901719-59.84896904 63.34890908-128.24779131 16.29971895-177.54694278l-114.14803448-119.7479373a31.09946396 31.09946396 0 0 0-22.54961162-9.84983028zM584.49100185-66c-4.44992344 0-9.49983662 0-13.94976005 0.64998896a131.79773057 131.79773057 0 0 0-75.39870147 38.54933614l-257.84555976 262.39548076c-43.099258 43.69924776-63.34890908 78.44864854-81.69859248 108.6481292-10.79981367 17.99968974-20.94963926 35.34939141-34.8494001 53.39908037-3.79993448 5.0999124-8.24985791 10.24982315-12.69978135 15.39973477C81.49966455 445.84118497 64.99994873 467.04081943 63.6999708 488.99044219c0 1.24997871 0 2.54995576-0.59998974 3.84993369-1.89996768 19.29966768-6.34989023 59.79896982 39.24932431 106.09817256L308.24575947 807.88494961C354.49496299 854.78414209 408.99402442 827.78460703 445.09340234 809.13492832l5.69990215-2.54995576c5.69990215-2.59995498 11.99979316-5.79989971 17.74969366-8.99984532 36.09937792-17.99968974 81.69859336-39.89931328 120.99791601-74.59871572a32.99943164 32.99943164 0 0 0 3.14994639-46.29920185 31.84945136 31.84945136 0 0 0-45.59921456-3.19994561c-32.94943242 28.89950185-74.09872354 48.84915849-107.04815683 64.94888144-6.34989023 3.19994473-12.69978135 6.39988945-18.99967236 8.99984532l-5.69990216 3.19994473c-40.54930137 20.5996456-51.34911592 22.4996124-62.74891933 10.94981133L147.99851914 552.58934648c-24.04958555-24.4495793-22.14961875-38.59933535-20.89964003-52.7490914 0-1.24997871 0-1.89996768 0.64998896-3.19994472 3.1499455-8.34985635 20.89964003-29.59949003 30.39947578-41.149292 4.44992344-5.79989971 9.49983662-11.59980029 13.29977109-16.69971182 17.09970557-21.89962266 28.49950898-41.14929112 39.9493125-60.498958 17.69969531-30.19947979 34.19941113-58.49899277 71.54876777-96.39833995l257.8455589-261.74549267c10.79981367-10.89981211 24.74957373-17.99968974 37.9993456-19.89965655 9.49983662-1.29997793 17.74969453 0.64998896 22.19961797 4.49992178 12.69978135 12.84977901 77.29866914 70.69878281 167.24711953 151.09739825 50.69912695 44.9992248 107.69814492 95.7983502 113.39804707 102.24823886 0.64998896 0.64998896 33.59942138 43.69924776 3.19994473 74.59871572L646.48993378 574.43896992a32.94943242 32.94943242 0 0 0 0 46.29920274 31.79945214 31.79945214 0 0 0 45.64921378 0L930.38504433 378.99233584c26.59954219-26.99953506 36.7493669-62.99891543 29.14949796-100.99826016-5.69990215-28.24951377-20.29965029-53.99907011-32.29944346-66.19886015-6.9998792-7.09987763-46.89919248-42.44926904-116.5979918-104.79819464-67.79883252-60.49895801-151.99738242-135.6976626-164.09717402-147.8974535-15.19973789-16.09972295-37.34935664-25.09956738-62.04893116-25.09956739zM829.6367794 203.59535684000002a32.19944502 32.19944502 0 0 0-22.79960684 9.49983662l-115.99800293 115.84800439a32.04944825 32.04944825 0 0 0 0 45.54921621 32.19944502 32.19944502 0 0 0 45.59921543 0l115.99800205-115.79800605a32.04944825 32.04944825 0 0 0 0-45.59921455 30.14948057 30.14948057 0 0 0-22.79960771-9.49983662zM748.48817744 121.99676191000003a32.19944502 32.19944502 0 0 0-22.79960772 9.49983663l-116.04800126 115.84800527a32.04944825 32.04944825 0 0 0 0 45.54921533 32.19944502 32.19944502 0 0 0 45.64921377 0l115.99800205-115.79800606a32.04944825 32.04944825 0 0 0 0-45.59921454 32.19944502 32.19944502 0 0 0-22.79960684-9.49983663zM660.33969541 33.998277540000004a32.19944502 32.19944502 0 0 0-22.79960772 9.49983662l-115.99800204 115.79800605a32.04944825 32.04944825 0 0 0 0 45.59921456 32.19944502 32.19944502 0 0 0 45.59921455 0l115.99800204-115.84800528a32.04944825 32.04944825 0 0 0 0-45.54921533 32.19944502 32.19944502 0 0 0-22.79960683-9.49983663z"  horiz-adv-x="1137" />

    
    <glyph glyph-name="canguanyuyue" unicode="&#58983;" d="M655.38666688-16.00000031000002H123.92A91.78666687 91.78666687 0 0 0 32 75.49333311999999V692.50666688A91.78666687 91.78666687 0 0 0 123.89333375 784.00000031h749.54666625C924.10666625 784.00000031 965.33333375 742.9600003099999 965.33333375 692.50666688v-415.28000063h-57.92000063V692.50666688c0 18.66666656-15.25333313 33.84-33.97333312 33.83999999H123.89333375c-18.72 0-33.97333313-15.19999969-33.97333406-33.84v-617.01333375c0-18.66666656 15.25333313-33.84 33.97333406-33.84h531.46666594V-16.00000031000002zM805.33333344 144m-240 0a240 240 0 1 1 480 0 240 240 0 1 1-480 0ZM824.29333344 117.33333374999995c-12.16000031 0-23.68000031 4.74666656-32.26666688 13.33333313A45.06666656 45.06666656 0 0 0 778.66666625 163.12000031000002l0.26666719 63.06666657a24.58666687 24.58666687 0 0 0 24.69333281 24.48h5.68000031a24.58666687 24.58666687 0 0 0 24.50666719-24.66666657l-0.26666719-53.73333375 53.76 0.26666719a24.48 24.48 0 0 0 24.69333375-24.50666719v-5.65333312a24.48 24.48 0 0 0-24.53333343-24.66666656l-63.06666657-0.26666719c0-0.10666688 0-0.10666688-0.10666687-0.10666594zM298.66666625 650.6666662499999c-14.74666687 0-26.66666625 12.55999969-26.66666625 28.10666719V835.89333375C272 851.44000031 283.92000031 864 298.66666625 864c14.74666687 0 26.66666625-12.55999969 26.66666719-28.10666625v-157.01333344C325.33333344 663.3333337500001 313.41333312 650.6666662499999 298.66666625 650.6666662499999zM725.33333375 650.6666662499999c-14.74666687 0-26.66666625 12.55999969-26.66666719 28.10666719V835.89333375C698.66666656 851.44000031 710.58666688 864 725.33333375 864c14.74666687 0 26.66666625-12.55999969 26.66666625-28.10666625v-157.01333344C752 663.3333337500001 740.07999969 650.6666662499999 725.33333375 650.6666662499999zM58.66666625 597.3333337500001h880.00000031v-53.33333344H58.66666625zM482.48 357.33333374999995h-261.06666656C205.14666687 357.33333374999995 192.00000031 369.25333313 192.00000031 384c0 14.74666687 13.14666656 26.66666625 29.41333313 26.66666625h261.17333343c16.26666656 0 29.41333313-11.92000031 29.41333313-26.66666625-0.10666688-14.74666687-13.22666625-26.66666625-29.52-26.66666625zM403.52 250.66666687999998H220.4C204.66666687 250.66666687999998 192.00000031 262.58666625 192.00000031 277.33333312c0 14.74666687 12.69333375 26.66666625 28.39999969 26.66666719h183.19999969c15.73333313 0 28.39999969-11.92000031 28.40000062-26.66666719-0.10666688-14.74666687-12.79999969-26.66666625-28.48000031-26.66666625z"  horiz-adv-x="1080" />

    
    <glyph glyph-name="canzhanshangmulu" unicode="&#58984;" d="M208.13333375 414.24a19.2 19.2 0 0 1-19.22666719-19.12000031v-395.57333344a19.2 19.2 0 0 1 19.2-19.11999937h634.42666688a19.2 19.2 0 0 1 19.22666625 19.11999937V395.11999969a19.2 19.2 0 0 1-19.2 19.12000031H208.10666656m0 76.42666687h634.39999969C895.62666688 490.66666688 938.66666656 447.89333344 938.66666656 395.11999969v-395.57333344C938.66666656-53.22666656000001 895.62666688-96 842.53333344-96H208.13333375C155.04000031-96 111.99999969-53.22666656000001 111.99999969-0.4533337499999561V395.11999969C111.99999969 447.89333344 155.04000031 490.66666688 208.13333375 490.66666688zM838.71999969 330.66666655999995c-29.65333312 0-58.48000031 8.64-81.19999969 24.34666688l-22.93333313 15.84-22.93333312-15.84c-22.72000031-15.70666687-51.57333375-24.34666688-81.22666688-24.34666688-30 0-59.09333344 8.80000031-81.92000062 24.85333313l-23.17333313 16.26666656-23.17333312-16.26666656c-22.82666625-16.02666656-51.91999969-24.85333312-81.91999969-24.85333313-29.65333312 0-58.48000031 8.64-81.22666687 24.34666688l-22.93333313 15.84-22.93333406-15.84C270.42666687 339.30666656000005 241.59999969 330.66666655999995 212 330.66666655999995 142.13333375 330.66666655999995 85.33333344 377.44000030999996 85.33333344 434.93333344c0 1.86666656 0.05333344 3.70666687 0.18666656 5.54666625l0.13333313 2.18666718-0.15999938 2.18666625a88.98666656 88.98666656 0 0 0-0.10666687 2.61333375L132.26666656 719.78666625l0.48 2.90666719v2.93333344C132.8 772.74666656 191.78666656 810.66666656 240.66666688 810.66666656h569.33333343c48.88000031 0 107.89333313-37.92 107.89333313-85.03999969v-2.93333343l0.50666625-2.90666719 46.88000062-272.31999938a82.93333312 82.93333312 0 0 0-0.10666687-2.61333374l-0.16000031-2.18666625 0.13333312-2.18666719c0.13333312-1.84000031 0.18666656-3.67999969 0.1866675-5.52C965.33333375 377.44000030999996 908.53333344 330.66666655999995 838.71999969 330.66666655999995zM830.79999969 354.77333344c47.20000031 0 85.62666656 32.26666687 85.62666656 71.92000031 0 1.2-0.02666625 2.37333375-0.10666594 3.54666656l-0.26666718 4.66666594 0.16000031 2.93333344L871.14666688 722.6666662499999l-0.96 6.13333406v6.26666625c0 24.05333344-35.89333313 51.46666688-67.38666657 51.46666688H247.86666687c-31.49333344 0-67.38666656-27.41333344-67.38666656-51.46666688v-6.24l-0.96-6.13333312-45.06666656-284.88 0.15999937-2.93333344-0.26666625-4.63999969a61.94666625 61.94666625 0 0 1-0.10666687-3.54666656c0-39.65333344 38.4-71.92000031 85.65333375-71.92000031 20.90666625 0 41.06666625 6.50666625 56.79999937 18.31999969l44.66666719 33.6 44.71999969-33.6c15.73333313-11.81333344 35.89333313-18.31999969 56.80000031-18.31999969 21.17333344 0 41.52 6.66666656 57.30666656 18.69333281l45.14666625 34.48000031 45.14666719-34.48000031c15.78666656-12.05333344 36.13333313-18.66666656 57.30666656-18.66666656 20.90666625 0 41.06666625 6.48 56.79999938 18.32000062l44.72000062 33.6 44.69333344-33.6c15.73333313-11.83999969 35.89333313-18.34666688 56.79999938-18.34666687m0-77.44000031a168.55999969 168.55999969 0 0 0-101.52 33.33333375A168.61333312 168.61333312 0 0 0 627.78666688 277.33333312a168.45333375 168.45333375 0 0 0-102.45333375 34.02666657A168.42666656 168.42666656 0 0 0 422.88000031 277.33333312a168.61333312 168.61333312 0 0 0-101.49333375 33.33333375A168.58666688 168.58666688 0 0 0 219.89333375 277.33333312C130.82666656 277.33333312 58.66666625 344.18666625000003 58.66666625 426.66666656c0 2.74666688 0.07999969 5.46666656 0.24 8.18666719A134.18666625 134.18666625 0 0 0 58.66666625 442.8l46.24000031 292.26666656C104.90666656 806.26666687 178.18666625 864 247.83999969 864h554.96000062c69.67999969 0 142.96000031-57.73333313 142.95999938-128.93333344L992 442.8c0-2.66666625-0.07999969-5.33333344-0.24-7.94666625 0.16000031-2.71999969 0.24-5.44000031 0.24-8.16C992 344.18666625000003 919.83999969 277.33333312 830.79999969 277.33333312zM282.13333344 544.00000031h459.73333312c20.32000031 0 36.79999969-17.92000031 36.79999969-40.00000031s-16.48000031-40.00000031-36.79999969-40.00000031H282.13333344C261.78666687 463.99999969 245.33333375 481.92 245.33333375 504S261.81333313 544.00000031 282.13333344 544.00000031zM265.57333344 250.66666687999998h252.85333312c11.20000031 0 20.23999969-17.92000031 20.23999969-40.00000032s-9.06666656-40.00000031-20.23999969-40.00000031H265.59999969C254.37333312 170.66666625000005 245.33333375 188.58666656000003 245.33333375 210.66666655999995s9.06666656 40.00000031 20.23999969 40.00000031zM265.57333344 117.33333374999995h252.85333312c11.20000031 0 20.23999969-17.92000031 20.23999969-40.00000031s-9.06666656-40.00000031-20.23999969-40.00000032H265.59999969C254.37333312 37.33333312000002 245.33333375 55.253333440000006 245.33333375 77.33333344000005s9.06666656 40.00000031 20.23999969 40.00000031z"  horiz-adv-x="1052" />

    
    <glyph glyph-name="zhanhuiricheng" unicode="&#58985;" d="M447.208727 104.72727299999997h28.858182a12.916364 12.916364 0 0 1 12.660364 13.079272V370.80436399999996a12.939636 12.939636 0 0 1-12.637091 13.195636h-21.573818a64 64 0 0 1-24.040728-5.818182l-49.221818-25.181091a17.92 17.92 0 0 1-8.564363-18.618182l4.002909-18.292363c1.512727-6.981818 7.889455-10.123636 14.056727-6.772364l31.650909 16.430546c6.283636 3.258182 11.496727 5.911273 11.869091 5.911272 0.186182 0 0.395636-5.911273 0.395636-13.102545v-200.634182a12.753455 12.753455 0 0 1 12.544-13.195636zM762.484364 134.423273v-115.665455H121.786182V469.969455h640.698182v-117.387637l51.968 44.986182V520.8436360000001h-0.302546V523.636364H70.213818v-2.792728H69.818182v-511.069091c0.093091-24.832 19.316364-44.590545 43.333818-44.683636h658.059636c24.017455 0.093091 43.240727 19.851636 43.333819 44.683636l-0.395637 197.981091-51.665454-73.332363zM814.545455 673.024c-0.093091 26.414545-20.317091 47.662545-45.428364 47.662545h-95.278546V745.216c0 18.944-13.614545 34.420364-30.347636 34.420364h-36.119273c-16.709818 0-30.324364-15.476364-30.324363-34.420364v-24.529455H291.909818V745.216c0 18.944-13.614545 34.420364-30.324363 34.420364H225.442909c-16.709818 0-30.324364-15.476364-30.324364-34.420364v-24.529455H115.246545C90.065455 720.593455 69.911273 699.345455 69.818182 673.047273V570.181818h744.727273V673.024zM946.036364 472.296727L716.8 275.712c-9.029818-7.726545-25.483636-10.542545-36.352-6.330182l-134.237091 51.968c-10.891636 4.189091-14.312727-0.232727-7.168-9.844363l145.128727-199.68c7.051636-9.634909 18.315636-9.448727 24.971637 0.488727l241.035636 356.072727c6.656 9.821091 4.887273 11.636364-4.119273 3.909818z"  horiz-adv-x="1024" />

    
    <glyph glyph-name="weixin-copy" unicode="&#58989;" d="M962 265.90540576C962 391.29729756 836 493.45945987 694.60270244 493.45945987 544.83783769 493.45945987 426.86486474 391.22432461 426.86486474 265.90540576c0-125.61081065 117.97297295-227.57837872 267.7378377-227.57837871 31.37837871 0 63.04864834 7.90540576 94.52432461 15.71351308L875.40540576 6.972972949999985l-23.71621641 78.32432461C914.93243281 132.58378359000005 962 195.21891885000002 962 265.9297295z m-350.22162129 34.80810732c-19.70270244 0-35.65945987 15.9081082-35.65945986 35.51351397 0 19.65405411 15.95675654 35.53783769 35.65945987 35.53783769 19.70270244 0 35.65945987-15.88378359 35.65945897-35.51351308 0-19.55675654-15.95675654-35.53783769-35.65945897-35.53783858z m173.2378377 0.24324346c-19.70270244 0-35.65945987 15.93243281-35.65945987 35.56216231 0 19.62972949 15.95675654 35.51351309 35.65945987 35.51351396 19.70270244 0 35.65945987-15.88378359 35.65945898-35.51351396 0-19.62972949-15.95675654-35.53783769-35.65945898-35.5378377zM376.78108115 736.7027024399999C203.7378377 736.7027024399999 62 621.94054013 62 476.18918935c0-84.16216231 47.16486474-153.19459424 125.97567539-206.80540576L156.5 177.24324346000003l110.01891885 53.7081082c39.40540576-7.54054013 70.95405411-15.37297295 110.2621623-15.37297295 9.9 0 19.70270244 0.4378377 29.43243193 1.21621553a222.3 222.3 0 0 0-9.72972949 64.21621641c0 133.83243281 118.14324346 242.46486474 267.64054102 242.46486474 10.24054013 0 20.33513526-0.70540576 30.3081082-1.82432373C667.14054013 645 531.55675654 736.7027024399999 376.78108115 736.7027024399999z m-105.71351396-210.18648603c-23.64324346 0-42.81081065 18.63243281-42.81081065 41.61891885 0 23.01081065 19.16756719 41.64324346 42.81081065 41.64324346 23.59459424 0 42.78648692-18.63243281 42.78648691-41.64324346 0-22.98648692-19.16756719-41.61891885-42.81081064-41.61891885z m219.84324346 0c-23.64324346 0-42.81081065 18.63243281-42.81081065 41.61891885 0 23.01081065 19.16756719 41.64324346 42.81081065 41.64324346 23.59459424 0 42.78648692-18.63243281 42.78648691-41.64324346 0-22.98648692-19.16756719-41.61891885-42.81081065-41.61891885z"  horiz-adv-x="1024" />

    
    <glyph glyph-name="weixin" unicode="&#58980;" d="M962 265.90540576C962 391.29729756 836 493.45945987 694.60270244 493.45945987 544.83783769 493.45945987 426.86486474 391.22432461 426.86486474 265.90540576c0-125.61081065 117.97297295-227.57837872 267.7378377-227.57837871 31.37837871 0 63.04864834 7.90540576 94.52432461 15.71351308L875.40540576 6.972972949999985l-23.71621641 78.32432461C914.93243281 132.58378359000005 962 195.21891885000002 962 265.9297295z m-350.22162129 34.80810732c-19.70270244 0-35.65945987 15.9081082-35.65945986 35.51351397 0 19.65405411 15.95675654 35.53783769 35.65945987 35.53783769 19.70270244 0 35.65945987-15.88378359 35.65945897-35.51351308 0-19.55675654-15.95675654-35.53783769-35.65945897-35.53783858z m173.2378377 0.24324346c-19.70270244 0-35.65945987 15.93243281-35.65945987 35.56216231 0 19.62972949 15.95675654 35.51351309 35.65945987 35.51351396 19.70270244 0 35.65945987-15.88378359 35.65945898-35.51351396 0-19.62972949-15.95675654-35.53783769-35.65945898-35.5378377zM376.78108115 736.7027024399999C203.7378377 736.7027024399999 62 621.94054013 62 476.18918935c0-84.16216231 47.16486474-153.19459424 125.97567539-206.80540576L156.5 177.24324346000003l110.01891885 53.7081082c39.40540576-7.54054013 70.95405411-15.37297295 110.2621623-15.37297295 9.9 0 19.70270244 0.4378377 29.43243193 1.21621553a222.3 222.3 0 0 0-9.72972949 64.21621641c0 133.83243281 118.14324346 242.46486474 267.64054102 242.46486474 10.24054013 0 20.33513526-0.70540576 30.3081082-1.82432373C667.14054013 645 531.55675654 736.7027024399999 376.78108115 736.7027024399999z m-105.71351396-210.18648603c-23.64324346 0-42.81081065 18.63243281-42.81081065 41.61891885 0 23.01081065 19.16756719 41.64324346 42.81081065 41.64324346 23.59459424 0 42.78648692-18.63243281 42.78648691-41.64324346 0-22.98648692-19.16756719-41.61891885-42.81081064-41.61891885z m219.84324346 0c-23.64324346 0-42.81081065 18.63243281-42.81081065 41.61891885 0 23.01081065 19.16756719 41.64324346 42.81081065 41.64324346 23.59459424 0 42.78648692-18.63243281 42.78648691-41.64324346 0-22.98648692-19.16756719-41.61891885-42.81081065-41.61891885z"  horiz-adv-x="1024" />

    
    <glyph glyph-name="shengchengtupian" unicode="&#58981;" d="M110.64864834 396.1621623c0-228.38108115 185.13243281-413.51351309 413.51351397-413.51351396s413.51351309 185.13243281 413.51351308 413.51351396S752.54324346 809.67567539 524.1621623 809.67567539 110.64864834 624.54324346 110.64864834 396.1621623zM536.32432461 639.40540576c-20.11621641 0-36.48648692-16.10270244-36.48648692-36.07297295v-292.71891973c0-19.87297295 16.29729756-36.07297295 36.48648692-36.07297295 20.11621641 0 36.48648692 16.10270244 36.48648604 36.07297295V603.40540576C572.81081065 623.3027024400001 556.51351309 639.40540576 536.32432461 639.40540576zM684.3378377 459.04054013a34.41891885 34.41891885 0 0 1-48.69729757 0l-101.38378359-101.38378359a34.41891885 34.41891885 0 1 1 48.69729756-48.69729667l101.38378359 101.38378359a34.41891885 34.41891885 0 0 1 0 48.69729667zM388.28648692 459.06486474a34.32162129 34.32162129 0 0 1-1e-8-48.55135165l101.57837783-101.57837783a34.32162129 34.32162129 0 1 1 48.55135167 48.55135165l-101.57837872 101.57837783a34.32162129 34.32162129 0 0 1-48.55135078 0zM780.88108115 323.18918935c-19.45945987 0-35.27027051-17.44054013-35.2702705-39.06486474v-33.54324346c-1.89729756-10.09459424-9.21891885-17.90270244-18.48648604-19.53243281H344.64864834c-9.12162128 2.18918935-16.17567539 10.38648691-17.53783769 20.67567627V284.02702705c0 21.52702705-15.73783769 39.06486474-35.27027052 39.06486475-19.53243281 0-35.27027051-17.44054013-35.27026963-39.06486475v-71.07567539c1.97027051-31.45135166 24.0081082-56.67567539 52.05405411-60.03243281h454.5c27.77837872 2.77297295 49.98648692 27.1459459 52.90540488 57.84324345V284.02702705c0.09729756 21.72162128-15.73783769 39.16216231-35.17297295 39.1621623z"  horiz-adv-x="1024" />

    
    <glyph glyph-name="pengyouquan" unicode="&#58982;" d="M651.543273 780.381091S595.93697 802.909091 512 802.909091C427.969939 802.909091 372.363636 777.0918790000001 372.363636 777.0918790000001L651.636364 492.606061l-0.093091 287.77503zM810.511515 689.958788C746.589091 750.312727 684.838788 771.878788 684.838788 771.878788L682.666667 368.48484800000006l217.212121 205.110304c0-0.124121-25.320727 55.916606-89.367273 116.332606zM905.029818 523.636364L620.606061 244.36363600000004h287.744S930.909091 299.96993899999995 930.909091 384.03103c-0.093091 83.968-25.879273 139.605333-25.879273 139.605334zM701.595152 27.151515000000018s55.978667 21.721212 116.363636 76.551758C878.312727 158.56484799999998 899.878788 211.47151499999995 899.878788 211.47151499999995L496.484848 213.33333300000004l205.110304-186.181818zM372.456727-12.38109099999997S428.06303-34.90909099999999 512-34.90909099999999c84.092121 0 139.605333 25.817212 139.605333 25.817212L372.363636 275.39393900000005l0.093091-287.77503zM213.488485 78.07224199999996C277.410909 17.65624200000002 339.192242-3.878787999999986 339.192242-3.878787999999986L341.333333 399.515152l-217.212121-205.110304c0.093091 0.093091 25.413818-55.916606 89.367273-116.332606zM115.649939 523.636364S93.090909 468.030061 93.090909 384s25.817212-139.636364 25.817212-139.636364L403.393939 523.543273H115.649939V523.636364zM353.435152 740.848485s-55.978667-21.721212-116.363637-76.551758C176.717576 609.435152 155.151515 556.528485 155.151515 556.528485L558.545455 554.666667l-205.110303 186.181818z"  horiz-adv-x="1024" />

    
    <glyph glyph-name="huiyuan" unicode="&#58970;" d="M1022.46846787 494.57482266a17.80696494 17.80696494 0 0 1-0.32142568 22.75691572L765.58532276 819.85728398a17.99981982 17.99981982 0 0 1-5.14280567 4.11424454A18.19267558 18.19267558 0 0 1 744.17839385 834H345.03238497c-6.74993232 0-12.85701416-3.85710469-15.94269757-9.44990508a17.48553926 17.48553926 0 0 1-6.10708183-4.69281094L66.42088526 517.3317383799999a17.80696494 17.80696494 0 0 1-4.1785295-13.30700976 17.74267998 17.74267998 0 0 1 4.11424453-13.43558057L532.93764922-59.56249335999996a18.19267558 18.19267558 0 0 1 31.7568252 8.35705987 16.07126748 16.07126748 0 0 1 1.22141601 1.28570097l452.18119219 533.24466768a17.99981982 17.99981982 0 0 1 4.37138525 11.31417245zM544.25182168 184.72077832000002l242.61185918 255.3403043a28.92828252 28.92828252 0 0 0 37.15677158 2.82854267c11.31417246-8.35705898 12.66415927-23.01405557 3.34282324-32.84967128l-260.99738964-274.81868086A28.02829131 28.02829131 0 0 0 544.25182168 126.86421415999996a27.96400635 27.96400635 0 0 0-22.04977939 8.22848907L261.1403668 409.97566904c-9.38562012 9.83561573-7.90706338 24.42832734 3.34282412 32.78538633a28.92828252 28.92828252 0 0 0 37.22105566-2.7642586L544.25182168 184.72077832000002z"  horiz-adv-x="1097" />

    
    <glyph glyph-name="xiaoxi" unicode="&#58971;" d="M600.81578984 30.299999999999955C600.81578984-22.894736429999966 555.72105254-66 500.15789492-66c-55.46842119 0-100.56315762 43.10526357-100.56315849 96.3h201.22105341zM500.3 719.22631612c77.58947373 0 152.00526357-31.16842119 206.85789492-86.63684239a297.56842119 297.56842119 0 0 0 85.68947373-209.22631612l-0.04736865-165.78947373 61.38947373-147.97894745a27.75789492 27.75789492 0 0 0-3.97894746-24.34736778 27.09473643 27.09473643 0 0 0-21.78947373-11.32105253H171.98947373a27 27 0 0 0-22.02631611 11.51052626 27.66315761 27.66315761 0 0 0-3.55263135 24.86842119l61.34210508 147.45789404V423.36315762c0 163.42105254 131.02105254 295.91052627 292.5947373 295.91052626zM500.15789492 834c39.07894746 0 70.67368388-31.92631612 70.67368389-71.43157881H429.53157881A71.05263135 71.05263135 0 0 0 500.15789492 834z"  horiz-adv-x="1024" />

    
    <glyph glyph-name="huizhan" unicode="&#58972;" d="M181.98125 834h660.0375A120.375 120.375 0 0 0 962 714.01875v-660.0375A120.375 120.375 0 0 0 842.01875-66H181.98125A120.375 120.375 0 0 0 62 53.981250000000045V714.01875A120.375 120.375 0 0 0 181.98125 834zM692 474c47.98125 0 90 42.01875 90 90 0 47.98125-42.01875 90-90 90-47.98125 0-90-42.01875-90-90 0-47.98125 42.01875-90 90-90z m-240.01875-234L392.01875 336.01874999999995c0 5.9625-6.01875 5.9625-12.0375 11.98125-18 6.01875-36 6.01875-41.9625-11.98125L181.98125 96v-11.98125c0-18 12.0375-30.0375 30.0375-30.0375h612a25.81875 25.81875 0 0 1 23.9625 24.01875c0 6.01875 0 11.98125-5.9625 11.98125L710 276c-6.01875 11.98125-24.01875 11.98125-36 6.01875l-6.01875-6.01875-11.98125-11.98125-83.98125-132.01875c-12.0375-11.98125-30.0375-18-42.01875-6.01875-6.01875 0-6.01875 6.01875-6.01875 12.0375l-72 101.98125z"  horiz-adv-x="1024" />

    
    <glyph glyph-name="youjian" unicode="&#58973;" d="M1031.79090869 834H155.84545479C104.13636347 834 62 789.16363653 62 734.01818174v-699.95454521C62-21.081818259999977 104.13636347-66 155.84545479-66h875.9454539C1083.5-66 1125.63636347-21.081818259999977 1125.63636347 34.06363653000005V734.01818174C1125.63636347 789.16363653 1083.5 834 1031.79090869 834z m-16.52727216-66.6l-421.36363653-389.29090869L172.29090869 767.4H1015.18181826z m16.52727216-766.71818174H155.84545479A31.25454521 31.25454521 0 0 0 127.45454521 20.399999999999977l298.22727305 254.29090869-39.10909131 52.03636436L124.59090869 103.36363652V723.21818174L593.81818174 289.90909131l469.22727305 433.30909043V103.36363652L801.06363652 326.72727305l-39.10909131-52.03636436L1060.18181826 20.399999999999977a31.25454521 31.25454521 0 0 0-28.39090957-19.71818174z"  horiz-adv-x="1210" />

    
    <glyph glyph-name="dizhi" unicode="&#58974;" d="M837.79935752 610.41428584C772.42078584 770.74285752 606.7565 861.25714248 441.79935752 826.67142832 276.84221416 792.21428584 158.29935752 642.17142833 158.42792832 468.21428584c0-83.89285752 56.95714248-198.51428584 169.32857168-340.71428584a2179.73571416 2179.73571416 0 0 1 165.53571416-185.78571416c10.47857168-10.22142832 26.93571416-10.22142832 37.41428584 0a2176.90714248 2176.90714248 0 0 1 165.53571416 185.78571416C808.61364248 269.70000000000005 865.57078584 384.32142832 865.57078584 468.21428584a373.95 373.95 0 0 1-27.77142832 142.26428583z m-82.28571504-290.95714336c-25.45714248-47.95714248-61.00714248-101.82857168-105.75-160.07142832A2175.23571416 2175.23571416 0 0 0 511.99935752-1.7142858400000023a2165.14285752 2165.14285752 0 0 0-137.44285752 160.71428584c-44.87142832 58.30714248-80.48571416 112.24285752-105.94285752 160.2C238.14221416 376.73571416000004 222.71364248 424.88571416 222.71364248 462.23571416 222.71364248 631.82142832 352.5065 769.71428584 511.99935752 769.71428584S801.28507168 631.82142832 801.28507168 462.23571416c0-37.28571416-15.42857168-85.37142832-45.7714292-142.71428583v-0.06428585zM511.99935752 641.14285752A160.90714248 160.90714248 0 0 1 351.28507168 480.42857168C351.28507168 391.84285752 423.41364248 319.71428584 511.99935752 319.71428584 600.64935752 319.71428584 672.71364248 391.84285752 672.71364248 480.42857168S600.64935752 641.14285752 511.99935752 641.14285752z m0-257.14285752a96.42857168 96.42857168 0 1 0 0 192.85714248 96.42857168 96.42857168 0 0 0 0-192.85714248z"  horiz-adv-x="1024" />

    
    <glyph glyph-name="ziyuan" unicode="&#58975;" d="M703.60470594 468.70588219h305.61882375L1133.17647031 318.38117624999995l-123.95294062-75.21882375V-96H624.94117625V391.73647031C624.94117625 434.25882375 660.17882375 468.70588219 703.60470594 468.70588219zM794.35294156 581.64705844c-62.34352969 0-112.94117625 47.43529406-112.94117718 105.93882375V864h144.84705937c44.66823563 0 81.03529406-33.99529406 81.03529406-76.06588219v-100.34823562c0-58.44705844-50.5976475-105.93882375-112.94117625-105.93882375zM177.2423525 412.23529406H404.14117625c59.52 0 107.85882375-48.84705844 107.85882375-108.98823562V-96H177.35529406v266.25882375L60.23529406 246.66352969000002 177.2423525 412.23529406zM342.58823563 468.70588219c-62.34352969 0-112.94117625 47.43529406-112.94117719 105.93882375V751.05882375h144.79058906C419.21882375 751.05882375 455.52941187 717.00705844 455.52941187 674.99294156v-100.34823562C455.52941187 516.14117625 404.93176438 468.70588219 342.58823563 468.70588219z"  horiz-adv-x="1204" />

    
    <glyph glyph-name="yiguanzhu" unicode="&#58976;" d="M1015.72014834 493.583267a44.30196299 44.30196299 0 0 1-35.98128985 29.85322587l-276.21261914 39.57941865L580.00921807 809.5439669A44.58306709 44.58306709 0 0 1 540.0362542 834a44.58306709 44.58306709 0 0 1-39.97296387-24.4560331L376.54626904 563.0159115199999l-276.26884013-39.57941865a44.30196299 44.30196299 0 0 1-35.98128985-29.79700576 43.40243057 43.40243057 0 0 1 11.30037364-44.97661143l199.92104121-191.93769316-47.22544248-270.9840876a43.57109268 43.57109268 0 0 1 17.76576182-42.89644424 45.0328333 45.0328333 0 0 1 46.94433837-3.31702471L540.0362542 67.48608750000005l247.0902627-127.95846152a45.20149541 45.20149541 0 0 1 46.88811826 3.3170247 43.57109268 43.57109268 0 0 1 17.70954169 42.89644424l-47.22544336 270.9840876 199.92104122 191.93769316a43.45865156 43.45865156 0 0 1 11.24415352 44.97661143z"  horiz-adv-x="1087" />

    
    <glyph glyph-name="guanzhu" unicode="&#58977;" d="M782.6183-65.4369375c-13.61249122 0-27.73123242 3.20624824-39.71247539 9.67499385L540.68720117 49.31299043000001l-201.76862432-105.63743408a86.84994551 86.84994551 0 0 0-40.21872451-9.67499385c-16.87498945 0-33.74997891 4.83749737-47.24997099 14.06249121-26.1562333 17.71873857-39.71247539 47.92497011-34.31247803 78.07495078l39.14997539 227.98110762L86.18748506 419.04400928A75.37495254 75.37495254 0 0 0 66.49999737 499.87520917a81.22494902 81.22494902 0 0 0 66.31870869 52.81871661l231.63735498 33.41247891L465.08724776 788.71877813C478.69973984 816.22501143 508.6247205 834 540.12470117 834c32.06247979 0 61.42496133-17.77498857 75.03745342-45.28122187l100.57493672-202.61237344 231.63735497-33.41247891c30.93748067-4.33124737 56.53121484-24.74998418 66.3749587-52.87496661a76.27495253 76.27495253 0 0 0-19.63123769-81.33744989l-170.15614366-164.36239717 39.14997539-227.98110761c5.39999648-30.14998154-8.15624473-60.35621221-34.31247803-78.13120078a84.37494727 84.37494727 0 0 0-46.12497099-13.49999122zM540.68720117 125.25044297c9.78749385 0 19.0124877-2.13749825 27.73123242-6.4687456l209.81236904-109.40618233c1.12499912-0.5625 2.81249824-1.06874912 4.38749737-1.06874912 2.19374825 0 3.82499737 0.5625 5.45624648 1.63124912a6.4124956 6.4124956 0 0 1 2.69999825 4.83749736l-40.78122452 236.58735147a57.14996396 57.14996396 0 0 0 16.31248946 50.11871923l176.17489014 170.32489366c1.12499912 1.06874912 2.19374825 2.69999824 1.63124912 4.83749649-0.5625 1.63124912-3.26249824 3.76874737-6.52499649 4.33124735l-240.29984971 34.48122891a57.54371396 57.54371396 0 0 0-44.04372187 31.78122979L548.84344589 757.50004747c-1.12499912 2.13749825-4.38749737 3.76874737-7.6499956 3.76874823-3.26249824 0-6.5249956-1.68749912-7.59374472-4.33124736L429.1997706 546.7314293a59.79371221 59.79371221 0 0 0-44.04372274-31.78122979l-241.42484884-34.48122891c-3.26249824-0.5625-5.96249648-2.69999824-6.5249956-4.33124735-0.5625-1.57499912 0-3.20624824 1.68749824-4.83749649l176.11864014-170.83114366a55.68746484 55.68746484 0 0 0 16.31248945-50.11871836l-40.78122451-236.02485234c-0.5625-1.68749912 0.5625-3.82499737 2.75624912-5.39999648 1.63124912-1.12499912 3.26249824-1.63124912 5.39999648-1.63124912 1.68749912 0 3.26249824 0.5625 4.89374649 1.12499912l209.36236904 109.34993145c8.66249473 4.83749737 17.94373857 7.5374956 27.7312333 7.5374956z"  horiz-adv-x="1087" />

    
    <glyph glyph-name="fenxiang" unicode="&#58978;" d="M858.6125 279.0375v-183.825c0-31.66875-26.71875-58.21875-58.1625-58.21875l-614.86875-1.0125c-31.5 0-57.15 25.65-57.15 57.2625L129.5 708.1125c0 31.5 26.71875 58.21875 58.1625 58.21875h340.14375V834H187.6625C115.775 834 62 761.2125 62 696.1875v-602.94375c0-68.175 55.35-123.75 123.75-123.75h602.94375c72.05625 0 137.64375 59.9625 137.64375 125.71875V279.0375h-67.725zM699.25625 798.3375l253.6875-254.25-253.6875-253.96875V435.35625s-251.71875 27.9-398.64375-181.63125c0 0 46.2375 399.375 398.64375 399.375V798.3375z"  horiz-adv-x="1024" />

    
    <glyph glyph-name="dianhua" unicode="&#58979;" d="M753.38 803.51999971H292.82000029a57.84000029 57.84000029 0 0 1-57.90000058-57.89999971v-753.54000029c0-31.92000029 25.92-57.84000029 57.90000058-57.83999942h460.55999971a57.84000029 57.84000029 0 0 1 57.84000029 57.83999942V745.68000029a57.84000029 57.84000029 0 0 1-57.84000029 57.83999942z m-460.55999971-51.84h460.55999971a6.00000029 6.00000029 0 0 0 6.00000029-5.99999942v-511.44000029H286.82V745.62a6.00000029 6.00000029 0 0 0 6.00000029 6.05999971z m460.55999971-765.59999942H292.82000029a6.00000029 6.00000029 0 0 0-6.06000058 5.99999942V182.39999999999998h472.68v-190.32000029c0-3.24-2.7-6.00000029-6.05999971-5.99999942z m-285.77999971 100.19999971a56.58000029 56.58000029 0 1 1 113.15999971 0 56.58000029 56.58000029 0 0 1-113.15999971 0z"  horiz-adv-x="1024" />

    
    <glyph glyph-name="duigou" unicode="&#58966;" d="M512 805.875a421.875 421.875 0 1 1 0-843.75A421.875 421.875 0 0 1 512 805.875z m-34.7625-633.909375a35.690625 35.690625 0 0 0-50.034375 0L219.21875 374.88750000000005a33.91875 33.91875 0 0 0 0 48.853125c13.8375 13.5 36.28125 13.5 50.034375 0l182.925-178.5375L808.83125 593.25c13.8375 13.5 36.28125 13.5 50.034375 0a33.91875 33.91875 0 0 0 0-48.853125L477.2375 171.96562500000005z"  horiz-adv-x="1024" />

    
    <glyph glyph-name="wode" unicode="&#58967;" d="M605.32796006 327.61727900999995H417.63380469C270.97946474 327.48227900999996 152.13499912 207.60281865000002 152 59.77848398000003 152.13499912-9.746203120000018 208.06974776-65.99595 276.9644375-65.99595H745.99732724c33.29985059-0.26999912 65.24970645 12.82494199 88.96459922 36.44983565A126.53943047 126.53943047 0 0 1 871.99676035 59.77848398000003a269.23378886 269.23378886 0 0 1-78.25464843 189.67414659 264.7788082 264.7788082 0 0 1-188.41415186 78.16464844zM511.99838018 357.40714453c130.49941289 0.17999912 236.2039374 106.96451836 236.0689374 238.54392685C747.93231846 727.57547901 642.00279482 834.13499912 511.50338193 834c-130.49941289-0.13499912-236.24893653-106.96451836-236.0689374-238.54392685 0.26999912-131.53440849 106.10952276-238.04892862 236.56393565-238.04892862zM460.56361133 549.8262788100001h111.1044999a18.44991739 18.44991739 0 0 0 14.9849332-7.19996748c3.59998418-4.63497891 4.81497802-10.70995166 3.23998507-16.37992617a82.3496291 82.3496291 0 0 0-78.92964492-59.57973193A82.3496291 82.3496291 0 0 0 432.03373965 526.20138516c-3.32998506 11.92494638 5.89497363 23.57989365 28.52987168 23.57989365z"  horiz-adv-x="1024" />

    
    <glyph glyph-name="paixu" unicode="&#58968;" d="M1036.88670166 191.17767450999997a43.04479834 43.04479834 0 0 0 62.09249766 0 46.11942685 46.11942685 0 0 0 0-63.89227969l-174.87886904-179.97825234a43.04479834 43.04479834 0 0 0-62.16748858 0 46.11942685 46.11942685 0 0 0 0 63.89227969L1036.88670166 191.17767450999997z m-100.11290273-211.92439219c0-24.82200088-19.57263487-44.99456309-43.79470841-44.99456396a44.39463575 44.39463575 0 0 0-43.71971747 44.99456396V789.00543692c0 24.82200088 19.57263487 44.99456309 43.71971747 44.99456308 24.22207354 0 43.79470839-20.17256221 43.79470841-44.99456308v-809.7521546zM105.72421748 744.01087383A44.39463575 44.39463575 0 0 0 62.0045 789.00543692C62.0045 813.82743779 81.57713487 834 105.72421748 834H718.1752124c24.14708261 0 43.71971748-20.17256221 43.71971748-44.99456309 0-24.82200088-19.57263487-44.99456309-43.71971748-44.99456308H105.72421748z m0-269.89238847a44.39463575 44.39463575 0 0 0-43.71971748 44.99456308c0 24.82200088 19.57263487 44.99456309 43.71971748 44.99456396H718.1752124c24.14708261 0 43.71971748-20.17256221 43.71971748-44.99456396 0-24.82200088-19.57263487-44.99456309-43.71971748-44.99456308H105.72421748z m0-269.96737852a44.39463575 44.39463575 0 0 0-43.71971748 44.99456308c0 24.8969918 19.57263487 44.99456309 43.71971748 44.99456309H718.1752124c24.14708261 0 43.71971748-20.09757128 43.71971748-44.99456309 0-24.74700997-19.57263487-44.99456309-43.71971748-44.99456308H105.72421748z m0-269.89238848a44.39463575 44.39463575 0 0 0-43.71971748 44.99456396c0 24.8969918 19.57263487 44.99456309 43.71971748 44.99456309H718.1752124c24.14708261 0 43.71971748-20.09757128 43.71971748-44.99456309 0-24.82200088-19.57263487-44.99456309-43.71971748-44.99456396H105.72421748z"  horiz-adv-x="1194" />

    
    <glyph glyph-name="qiye" unicode="&#58969;" d="M1285.02167276-34.31727187000001a32.1078331 32.1078331 0 0 1-31.77044825 31.37683183h-44.47862753V546.88511924c0 43.41024052-35.59414834 78.5545418-79.45423506 78.55454092H796.9376208c0-14.73249112-0.16869287-29.46498223-0.16869199-44.1412418a297662.95084658 297662.95084658 0 0 0 0.73100127-330.97496836l0.33738486-147.32490938 0.11246221-61.40412245c0-17.60026553-14.50756758-30.64583057-31.71421757-31.37683184-17.15041846-0.6747706-31.65798604 15.01364531-31.77044737 31.37683184v1.06838613c-0.56230839 24.96651152-0.11246133 49.98925372-0.16869287 74.95576523a889198.16012578 889198.16012578 0 0 1-0.67477061 330.9187377V755.38922754C733.62164873 798.79946807 697.97126973 834 654.11118213 834H259.76401016c-43.8600876 0-79.3980044-35.20053193-79.3980044-78.61077247v-758.27343691c-14.22641338 0-28.39659521 0.22492354-42.62300859 0h-1.85561894c-16.58811006 0-32.50144951-14.45133691-31.65798604-31.37683184 0.78723193-16.86926425 13.9452583-31.32060117 31.65798604-31.32060117h1071.76060107c14.50756758 0 29.12759648-0.22492354 43.6913956 0h1.85561895c16.64434072-0.16869287 32.55768018 14.28264404 31.82667891 31.26437051z m-358.97794805 447.5978165h169.42364648c17.82518906 0 30.98321543-14.33887471 31.77044824-31.37683184 0.78723193-17.09418779-15.18233818-31.37683183-31.77044824-31.37683183h-169.42364648a32.05160244 32.05160244 0 0 0-31.7142167 31.37683183c-0.6747706 16.98172646 15.06987598 31.4330625 31.7142167 31.4330625z m0-208.61657051h169.42364648c17.82518906 0 30.98321543-14.39510537 31.77044824-31.48929316 0.78723193-17.03795713-15.18233818-31.32060117-31.77044824-31.32060117h-169.42364648a32.05160244 32.05160244 0 0 0-31.7142167 31.37683183c-0.6747706 16.98172646 15.06987598 31.48929404 31.7142167 31.48929317z m-556.12341739 420.2696083h174.03457765c17.99388193 0 31.37683183-14.62002891 32.16406464-31.77044824 0.73100127-17.20665-15.35103105-31.82667891-32.16406464-31.82667891H369.92030732a32.50144951 32.50144951 0 0 0-32.05160243 31.82667891c-0.84346348 17.20665 15.29479951 31.77044824 32.05160243 31.77044824z m0-210.69711299h174.03457765c17.99388193 0 31.37683183-14.62002891 32.16406464-31.82667891 0.73100127-17.20665-15.35103105-31.77044824-32.16406464-31.77044823H369.92030732a32.50144951 32.50144951 0 0 0-32.05160243 31.77044823c-0.84346348 17.20665 15.29479951 31.71421758 32.05160243 31.71421758v0.11246133z m0-210.52842011h174.03457765c17.99388193 0 31.37683183-14.56379824 32.16406464-31.77044825 0.73100127-17.26288066-15.35103105-31.82667891-32.16406464-31.8266789H369.92030732a32.50144951 32.50144951 0 0 0-32.05160243 31.8266789c-0.84346348 17.20665 15.29479951 31.77044824 32.05160243 31.77044825z"  horiz-adv-x="1407" />

    


  </font>
</defs>
</svg>
